# xmcd
# 
# Track frame offsets:
#     180
#     12642
#     25083
#     37454
#     55661
#     67498
#     76800
#     90773
#     100889
#     113824
#     127612
#     138824
# 
# Disc length: 1992
# 
# Revision: 0
# Processed by: cddbd v1.5.2PL0 Copyright (c) Steve Scherf et al.
# Submitted via: BonkEnc v1.0.8
# 
DISCID=9507c60c
DTITLE=Jack Jersey - Jack Jersey Sings Country
DYEAR=1975
DGENRE=Country
TTITLE0=Me And Bobby Mc-Gee
TTITLE1=After Sweet Memories
TTITLE2=No Other Love
TTITLE3=Gone Girl
TTITLE4=Sing Me Back Home
TTITLE5=The Reasons Why
TTITLE6=Help Me Make It Thru The Night
TTITLE7=Love Lovin' Lover
TTITLE8=Let It Be Me
TTITLE9=How Many
TTITLE10=Hello Darling
TTITLE11=Mary-Jane
EXTD=
EXTT0=
EXTT1=
EXTT2=
EXTT3=
EXTT4=
EXTT5=
EXTT6=
EXTT7=
EXTT8=
EXTT9=
EXTT10=
EXTT11=
PLAYORDER=
